<mxfile host="app.diagrams.net" modified="2020-10-26T17:53:28.008Z" agent="5.0 (Windows NT 10.0; Win64; x64) AppleWebKit/537.36 (KHTML, like Gecko) Chrome/86.0.4240.111 Safari/537.36" etag="80aicVeDzgg4Y9q49Cy0" version="13.8.3" type="github">
  <diagram id="GOWmolSBslAU45aR2Egf" name="Page-1">
    <mxGraphModel dx="1321" dy="637" grid="1" gridSize="10" guides="1" tooltips="1" connect="1" arrows="1" fold="1" page="1" pageScale="1" pageWidth="850" pageHeight="1100" math="0" shadow="0">
      <root>
        <mxCell id="0" />
        <mxCell id="1" parent="0" />
        <mxCell id="6fNWMJg1wWTijJtWFb_m-5" value="" style="edgeStyle=orthogonalEdgeStyle;rounded=0;orthogonalLoop=1;jettySize=auto;html=1;" parent="1" source="6fNWMJg1wWTijJtWFb_m-2" target="6fNWMJg1wWTijJtWFb_m-4" edge="1">
          <mxGeometry relative="1" as="geometry" />
        </mxCell>
        <mxCell id="6fNWMJg1wWTijJtWFb_m-2" value="For&lt;br&gt;A = 1 to 1000" style="rounded=0;whiteSpace=wrap;html=1;" parent="1" vertex="1">
          <mxGeometry x="320" y="110" width="120" height="60" as="geometry" />
        </mxCell>
        <mxCell id="6fNWMJg1wWTijJtWFb_m-15" value="" style="edgeStyle=orthogonalEdgeStyle;rounded=0;orthogonalLoop=1;jettySize=auto;html=1;" parent="1" source="6fNWMJg1wWTijJtWFb_m-4" target="6fNWMJg1wWTijJtWFb_m-14" edge="1">
          <mxGeometry relative="1" as="geometry" />
        </mxCell>
        <mxCell id="6fNWMJg1wWTijJtWFb_m-4" value="B = A*3&lt;br&gt;C= A*5" style="rounded=0;whiteSpace=wrap;html=1;" parent="1" vertex="1">
          <mxGeometry x="320" y="250" width="120" height="60" as="geometry" />
        </mxCell>
        <mxCell id="6fNWMJg1wWTijJtWFb_m-32" value="NO" style="edgeStyle=orthogonalEdgeStyle;rounded=0;orthogonalLoop=1;jettySize=auto;html=1;" parent="1" source="6fNWMJg1wWTijJtWFb_m-14" target="6fNWMJg1wWTijJtWFb_m-31" edge="1">
          <mxGeometry relative="1" as="geometry" />
        </mxCell>
        <mxCell id="6fNWMJg1wWTijJtWFb_m-36" value="" style="edgeStyle=orthogonalEdgeStyle;rounded=0;orthogonalLoop=1;jettySize=auto;html=1;" parent="1" source="6fNWMJg1wWTijJtWFb_m-14" target="6fNWMJg1wWTijJtWFb_m-35" edge="1">
          <mxGeometry relative="1" as="geometry" />
        </mxCell>
        <mxCell id="6fNWMJg1wWTijJtWFb_m-49" value="YES" style="edgeStyle=orthogonalEdgeStyle;rounded=0;orthogonalLoop=1;jettySize=auto;html=1;" parent="1" source="6fNWMJg1wWTijJtWFb_m-14" target="6fNWMJg1wWTijJtWFb_m-48" edge="1">
          <mxGeometry relative="1" as="geometry" />
        </mxCell>
        <mxCell id="6fNWMJg1wWTijJtWFb_m-14" value="B&amp;lt;= 1000," style="rounded=0;whiteSpace=wrap;html=1;" parent="1" vertex="1">
          <mxGeometry x="320" y="390" width="120" height="60" as="geometry" />
        </mxCell>
        <mxCell id="6fNWMJg1wWTijJtWFb_m-52" style="edgeStyle=orthogonalEdgeStyle;rounded=0;orthogonalLoop=1;jettySize=auto;html=1;entryX=0;entryY=0.5;entryDx=0;entryDy=0;" parent="1" source="6fNWMJg1wWTijJtWFb_m-28" target="6fNWMJg1wWTijJtWFb_m-2" edge="1">
          <mxGeometry relative="1" as="geometry">
            <Array as="points">
              <mxPoint x="70" y="140" />
            </Array>
          </mxGeometry>
        </mxCell>
        <mxCell id="6fNWMJg1wWTijJtWFb_m-28" value="Get next A" style="whiteSpace=wrap;html=1;rounded=0;" parent="1" vertex="1">
          <mxGeometry x="10" y="220" width="120" height="60" as="geometry" />
        </mxCell>
        <mxCell id="6fNWMJg1wWTijJtWFb_m-31" value="Stop&amp;nbsp;" style="rounded=0;whiteSpace=wrap;html=1;" parent="1" vertex="1">
          <mxGeometry x="590" y="530" width="120" height="60" as="geometry" />
        </mxCell>
        <mxCell id="6fNWMJg1wWTijJtWFb_m-33" value="Get list &lt;br&gt;all &lt;br&gt;B, C , sum(all B,C)" style="ellipse;whiteSpace=wrap;html=1;rounded=0;" parent="1" vertex="1">
          <mxGeometry x="290" y="790" width="180" height="110" as="geometry" />
        </mxCell>
        <mxCell id="6fNWMJg1wWTijJtWFb_m-40" value="NO" style="edgeStyle=orthogonalEdgeStyle;rounded=0;orthogonalLoop=1;jettySize=auto;html=1;entryX=0;entryY=0.5;entryDx=0;entryDy=0;" parent="1" source="6fNWMJg1wWTijJtWFb_m-35" target="6fNWMJg1wWTijJtWFb_m-31" edge="1">
          <mxGeometry relative="1" as="geometry" />
        </mxCell>
        <mxCell id="6fNWMJg1wWTijJtWFb_m-51" value="YES" style="edgeStyle=orthogonalEdgeStyle;rounded=0;orthogonalLoop=1;jettySize=auto;html=1;" parent="1" source="6fNWMJg1wWTijJtWFb_m-35" target="6fNWMJg1wWTijJtWFb_m-50" edge="1">
          <mxGeometry relative="1" as="geometry" />
        </mxCell>
        <mxCell id="6fNWMJg1wWTijJtWFb_m-59" value="" style="edgeStyle=orthogonalEdgeStyle;rounded=0;orthogonalLoop=1;jettySize=auto;html=1;" parent="1" source="6fNWMJg1wWTijJtWFb_m-35" target="6fNWMJg1wWTijJtWFb_m-58" edge="1">
          <mxGeometry relative="1" as="geometry" />
        </mxCell>
        <mxCell id="6fNWMJg1wWTijJtWFb_m-35" value="C &amp;lt;= 1000" style="rounded=0;whiteSpace=wrap;html=1;" parent="1" vertex="1">
          <mxGeometry x="320" y="530" width="120" height="60" as="geometry" />
        </mxCell>
        <mxCell id="6fNWMJg1wWTijJtWFb_m-45" style="edgeStyle=orthogonalEdgeStyle;rounded=0;orthogonalLoop=1;jettySize=auto;html=1;entryX=0.5;entryY=0;entryDx=0;entryDy=0;" parent="1" source="6fNWMJg1wWTijJtWFb_m-44" target="6fNWMJg1wWTijJtWFb_m-2" edge="1">
          <mxGeometry relative="1" as="geometry" />
        </mxCell>
        <mxCell id="6fNWMJg1wWTijJtWFb_m-44" value="INPUT&lt;br&gt;N = 1000" style="ellipse;whiteSpace=wrap;html=1;aspect=fixed;" parent="1" vertex="1">
          <mxGeometry x="340" width="80" height="80" as="geometry" />
        </mxCell>
        <mxCell id="6fNWMJg1wWTijJtWFb_m-54" style="edgeStyle=orthogonalEdgeStyle;rounded=0;orthogonalLoop=1;jettySize=auto;html=1;entryX=0.5;entryY=1;entryDx=0;entryDy=0;" parent="1" source="6fNWMJg1wWTijJtWFb_m-48" target="6fNWMJg1wWTijJtWFb_m-28" edge="1">
          <mxGeometry relative="1" as="geometry" />
        </mxCell>
        <mxCell id="6fNWMJg1wWTijJtWFb_m-48" value="Save B" style="rhombus;whiteSpace=wrap;html=1;rounded=0;" parent="1" vertex="1">
          <mxGeometry x="140" y="380" width="80" height="80" as="geometry" />
        </mxCell>
        <mxCell id="6fNWMJg1wWTijJtWFb_m-55" style="edgeStyle=orthogonalEdgeStyle;rounded=0;orthogonalLoop=1;jettySize=auto;html=1;entryX=0.5;entryY=1;entryDx=0;entryDy=0;" parent="1" source="6fNWMJg1wWTijJtWFb_m-50" target="6fNWMJg1wWTijJtWFb_m-28" edge="1">
          <mxGeometry relative="1" as="geometry" />
        </mxCell>
        <mxCell id="6fNWMJg1wWTijJtWFb_m-50" value="Save C" style="rhombus;whiteSpace=wrap;html=1;rounded=0;" parent="1" vertex="1">
          <mxGeometry x="140" y="520" width="80" height="80" as="geometry" />
        </mxCell>
        <mxCell id="6fNWMJg1wWTijJtWFb_m-61" style="edgeStyle=orthogonalEdgeStyle;rounded=0;orthogonalLoop=1;jettySize=auto;html=1;entryX=0.5;entryY=0;entryDx=0;entryDy=0;" parent="1" source="6fNWMJg1wWTijJtWFb_m-58" target="6fNWMJg1wWTijJtWFb_m-33" edge="1">
          <mxGeometry relative="1" as="geometry" />
        </mxCell>
        <mxCell id="6fNWMJg1wWTijJtWFb_m-58" value="SUM all (B,C)" style="rounded=0;whiteSpace=wrap;html=1;" parent="1" vertex="1">
          <mxGeometry x="320" y="670" width="120" height="60" as="geometry" />
        </mxCell>
      </root>
    </mxGraphModel>
  </diagram>
</mxfile>
